<svg width="50" height="50" viewBox="0 0 50 50" fill="none" xmlns="http://www.w3.org/2000/svg">
<path d="M40.1666 25C40.1666 25.3222 39.9055 25.5833 39.5833 25.5833V28.5833C41.5623 28.5833 43.1666 26.979 43.1666 25H40.1666ZM39.5833 25.5833C39.2612 25.5833 39 25.3222 39 25H36C36 26.979 37.6043 28.5833 39.5833 28.5833V25.5833ZM39 25C39 24.6778 39.2612 24.4167 39.5833 24.4167V21.4167C37.6043 21.4167 36 23.021 36 25H39ZM39.5833 24.4167C39.9055 24.4167 40.1666 24.6778 40.1666 25H43.1666C43.1666 23.021 41.5623 21.4167 39.5833 21.4167V24.4167ZM25.5833 25C25.5833 25.3222 25.3221 25.5833 25 25.5833V28.5833C26.979 28.5833 28.5833 26.979 28.5833 25H25.5833ZM25 25.5833C24.6778 25.5833 24.4166 25.3222 24.4166 25H21.4166C21.4166 26.979 23.021 28.5833 25 28.5833V25.5833ZM24.4166 25C24.4166 24.6778 24.6778 24.4167 25 24.4167V21.4167C23.021 21.4167 21.4166 23.021 21.4166 25H24.4166ZM25 24.4167C25.3221 24.4167 25.5833 24.6778 25.5833 25H28.5833C28.5833 23.021 26.979 21.4167 25 21.4167V24.4167ZM11 25C11 25.3222 10.7388 25.5833 10.4166 25.5833V28.5833C12.3957 28.5833 14 26.979 14 25H11ZM10.4166 25.5833C10.0945 25.5833 9.83331 25.3222 9.83331 25H6.83331C6.83331 26.979 8.43763 28.5833 10.4166 28.5833V25.5833ZM9.83331 25C9.83331 24.6778 10.0945 24.4167 10.4166 24.4167V21.4167C8.43763 21.4167 6.83331 23.021 6.83331 25H9.83331ZM10.4166 24.4167C10.7388 24.4167 11 24.6778 11 25H14C14 23.021 12.3957 21.4167 10.4166 21.4167V24.4167Z" fill="#7F838A"/>
</svg>
