<svg width="133" height="81" viewBox="0 0 133 81" fill="none" xmlns="http://www.w3.org/2000/svg">
<path d="M12.44 0.0399995H3V1.72H12.44C20.52 1.72 24.16 7.42 24.16 15C24.16 23.08 19.46 28.32 12.16 28.32H4.68V5.68H12.44C17.22 5.68 19.96 8.98 19.96 15C19.96 20.62 17 24.36 12.44 24.36H8.88V7.94H7.2V26.04H12.44C17.94 26.04 21.64 21.6 21.64 15C21.64 8.1 18.2 4 12.46 4H3V30H12.16C20.36 30 25.84 24.02 25.84 15C25.84 5.38 20.5 0.0399995 12.44 0.0399995ZM38.2159 24.36V13.14H48.4559V15.42H40.7359V17.1H50.1359V11.46H36.5359V26.04H49.1959V28.32H34.0159V1.72H48.9159V4H36.5359V9.18H38.2159V5.68H50.5959V0.0399995H32.3359V30H50.8759V24.36H38.2159ZM63.7628 24.36V13.14H74.0028V15.42H66.2828V17.1H75.6828V11.46H62.0828V26.04H74.7428V28.32H59.5628V1.72H74.4628V4H62.0828V9.18H63.7628V5.68H76.1428V0.0399995H57.8828V30H76.4228V24.36H63.7628ZM93.7897 0.0399995H83.4297V30H89.3097V15.96H94.0697C97.9697 15.96 100.23 13.74 100.23 9.86C100.23 6.24 97.9697 4 94.3497 4H87.6297V12H89.3097V5.68H94.3497C97.0497 5.68 98.5497 7.2 98.5497 9.86C98.5497 12.26 97.5297 14.28 94.0697 14.28H87.6297V28.32H85.1097V1.72H93.7897C101.87 1.72 102.75 7.4 102.75 9.86C102.75 14.9 99.6497 18.24 94.5297 18.24H91.8297V19.92H94.5297C100.83 19.92 104.43 15.58 104.43 9.86C104.43 4.68 101.33 0.0399995 93.7897 0.0399995ZM38.56 50.04L31.54 70.6L24.52 50.04H22.74L31.54 75.82L39.76 51.72H42.34L33.24 78.32H29.86L20.16 50.04H14.02L17.1 59.02L13.16 70.6L6.14 50.04H1.49012e-08L10.26 80H16.04L21.06 65.36L20.18 62.76L14.84 78.32H11.46L2.36 51.72H4.94L13.16 75.82L18.88 59.02L16.38 51.72H18.96L28.66 80H34.44L44.7 50.04H38.56ZM64.2309 50.02V51.76C69.8109 53.42 72.3509 59.24 72.3509 65C72.3509 71.84 68.7909 78.74 60.8709 78.74C52.9509 78.74 49.3909 71.84 49.3909 65C49.3909 58.42 52.6909 51.8 60.0309 51.3V55.3C60.2909 55.26 60.5709 55.24 60.8709 55.24C66.1909 55.24 68.1509 60.8 68.1509 65C68.1509 69.2 66.2109 74.78 60.8709 74.78C55.5309 74.78 53.5909 69.2 53.5909 65C53.5909 61.86 54.6909 57.92 57.5109 56.16V54.26C53.6909 55.98 51.9109 60.62 51.9109 65C51.9109 70.52 54.7109 76.46 60.8709 76.46C67.0309 76.46 69.8309 70.52 69.8309 65C69.8309 59.76 67.2709 54.12 61.7109 53.6V49.64C61.4309 49.62 61.1509 49.6 60.8709 49.6C52.4709 49.6 47.7109 56.6 47.7109 65C47.7109 73.4 52.4709 80.42 60.8709 80.42C69.2709 80.42 74.0309 73.4 74.0309 65C74.0309 57.8 70.5309 51.64 64.2309 50.02ZM90.8791 50.04H80.5391V80H86.4191V66.5L96.3191 80H103.479L92.5791 65.3C95.6391 64.86 97.4191 62.72 97.4191 59.54C97.4191 56.18 94.9791 54 91.1791 54H84.7391V61.48H86.4191V55.68H91.1791C93.9591 55.68 95.7391 57.02 95.7391 59.54C95.7391 61.78 94.6791 63.76 90.9791 63.76H89.3391L100.139 78.32H97.1791L86.4791 63.76H84.7391V78.32H82.2191V51.72H90.8791C96.3591 51.72 99.9391 54.72 99.9391 59.54C99.9391 62.54 98.7791 64.88 96.2591 66.36L97.2391 67.7C100.039 66.12 101.619 63.18 101.619 59.54C101.619 54.22 97.7791 50.04 90.8791 50.04ZM119.245 64.4L131.605 50.04H124.065L112.825 63.14V78.32H110.305V51.72H112.825V59.56L114.505 57.6V50.04H108.625V80H114.505V63.76L124.825 51.72H127.945L117.025 64.4L129.005 78.32H125.805L117.025 68.04V70.64L125.045 80H132.665L119.245 64.4Z" fill="#FFD369"/>
</svg>
