<svg width="45" height="47" viewBox="0 0 45 47" fill="#ffd369" xmlns="http://www.w3.org/2000/svg">

<path d="M22.5 29.4742C25.6066 29.4742 28.125 26.902 28.125 23.729C28.125 20.556 25.6066 17.9838 22.5 17.9838C19.3934 17.9838 16.875 20.556 16.875 23.729C16.875 26.902 19.3934 29.4742 22.5 29.4742Z" stroke="#FFD369" stroke-width="1.5" stroke-miterlimit="10" stroke-linecap="round" stroke-linejoin="round"/>
<path d="M3.75 25.4142V22.0437C3.75 20.052 5.34375 18.4051 7.3125 18.4051C10.7063 18.4051 12.0937 15.9538 10.3875 12.9471C9.4125 11.2235 9.99375 8.9829 11.7 7.98706L14.9437 6.09113C16.425 5.19105 18.3375 5.72727 19.2188 7.24018L19.425 7.60404C21.1125 10.6107 23.8875 10.6107 25.5937 7.60404L25.8 7.24018C26.6813 5.72727 28.5938 5.19105 30.075 6.09113L33.3188 7.98706C35.025 8.9829 35.6062 11.2235 34.6312 12.9471C32.925 15.9538 34.3125 18.4051 37.7063 18.4051C39.6563 18.4051 41.2688 20.0329 41.2688 22.0437V25.4142C41.2688 27.4059 39.675 29.0529 37.7063 29.0529C34.3125 29.0529 32.925 31.5042 34.6312 34.5108C35.6062 36.2536 35.025 38.4751 33.3188 39.4709L30.075 41.3668C28.5938 42.2669 26.6813 41.7307 25.8 40.2178L25.5937 39.8539C23.9062 36.8472 21.1312 36.8472 19.425 39.8539L19.2188 40.2178C18.3375 41.7307 16.425 42.2669 14.9437 41.3668L11.7 39.4709C9.99375 38.4751 9.4125 36.2344 10.3875 34.5108C12.0937 31.5042 10.7063 29.0529 7.3125 29.0529C5.34375 29.0529 3.75 27.4059 3.75 25.4142Z" stroke="#FFD369" stroke-width="1.5" stroke-miterlimit="10" stroke-linecap="round" stroke-linejoin="round"/>
</svg>
