<svg width="45" height="48" viewBox="0 0 45 48" fill="none" xmlns="http://www.w3.org/2000/svg">

<path d="M5.625 43.2345H39.375" stroke="#FFD369" stroke-width="1.5" stroke-linecap="round" stroke-linejoin="round"/>
<path d="M10.5 16.9051H7.5C6.46875 16.9051 5.625 17.775 5.625 18.8382V35.5019C5.625 36.5651 6.46875 37.4351 7.5 37.4351H10.5C11.5312 37.4351 12.375 36.5651 12.375 35.5019V18.8382C12.375 17.775 11.5312 16.9051 10.5 16.9051Z" stroke="#FFD369" stroke-width="1.5" stroke-linecap="round" stroke-linejoin="round"/>
<path d="M24 10.7383H21C19.9688 10.7383 19.125 11.6083 19.125 12.6715V35.5019C19.125 36.5651 19.9688 37.435 21 37.435H24C25.0312 37.435 25.875 36.5651 25.875 35.5019V12.6715C25.875 11.6083 25.0312 10.7383 24 10.7383Z" stroke="#FFD369" stroke-width="1.5" stroke-linecap="round" stroke-linejoin="round"/>
<path d="M37.5 4.57162H34.5001C33.4688 4.57162 32.6251 5.44154 32.6251 6.50477V35.5019C32.6251 36.5651 33.4688 37.435 34.5001 37.435H37.5C38.5313 37.435 39.375 36.5651 39.375 35.5019V6.50477C39.375 5.44154 38.5313 4.57162 37.5 4.57162Z" stroke="#FFD369" stroke-width="1.5" stroke-linecap="round" stroke-linejoin="round"/>
</svg>
