<svg width="45" height="48" viewBox="0 0 45 48" fill="none" xmlns="http://www.w3.org/2000/svg">
<path d="M15 24.2469H28.125" stroke="#FFD369" stroke-width="1.5" stroke-miterlimit="10" stroke-linecap="round" stroke-linejoin="round"/>
<path d="M15 31.9795H23.2125" stroke="#FFD369" stroke-width="1.5" stroke-miterlimit="10" stroke-linecap="round" stroke-linejoin="round"/>
<path d="M18.75 12.2614H26.25C30 12.2614 30 10.3283 30 8.39512C30 4.52884 28.125 4.52884 26.25 4.52884H18.75C16.875 4.52884 15 4.52884 15 8.39512C15 12.2614 16.875 12.2614 18.75 12.2614Z" stroke="#FFD369" stroke-width="1.5" stroke-miterlimit="10" stroke-linecap="round" stroke-linejoin="round"/>
<path d="M30 8.43381C36.2437 8.78177 39.375 11.1595 39.375 19.994V31.5928C39.375 39.3254 37.5 43.1917 28.125 43.1917H16.875C7.5 43.1917 5.625 39.3254 5.625 31.5928V19.994C5.625 11.1789 8.75625 8.78177 15 8.43381" stroke="#FFD369" stroke-width="1.5" stroke-miterlimit="10" stroke-linecap="round" stroke-linejoin="round"/>
</svg>
